<svg xmlns="http://www.w3.org/2000/svg" viewBox="0 0 14.41 16.33"><title>add_ico</title><g id="Layer_2" data-name="Layer 2"><g id="bar"><path d="M6.22,8.28c2.3,0,3.13-2.3,3.35-4.2C9.83,1.75,8.73,0,6.22,0S2.61,1.75,2.88,4.08C3.1,6,3.92,8.28,6.22,8.28Z" fill="#fff"/><path d="M11.25,9.24h.22a1.8,1.8,0,0,0-.38-.4A6.36,6.36,0,0,0,9.57,8.2a5.35,5.35,0,0,1-.68-.3A3.49,3.49,0,0,1,6.22,9.07,3.49,3.49,0,0,1,3.55,7.9a5.89,5.89,0,0,1-.67.3,6.2,6.2,0,0,0-1.52.64c-.77.57-1,1.85-1.12,2.73A16.12,16.12,0,0,0,0,13.76c0,.57.26.65.74.82a12.71,12.71,0,0,0,1.83.51,18.69,18.69,0,0,0,3.65.45A13.2,13.2,0,0,0,8,15.41a3.94,3.94,0,0,1,3.25-6.17Z" fill="#fff"/><path d="M11.25,10a3.15,3.15,0,1,0,3.16,3.15A3.15,3.15,0,0,0,11.25,10Zm1.38,3.69h-.84v.84a.54.54,0,1,1-1.08,0v-.84H9.87a.54.54,0,0,1,0-1.08h.84V11.8a.54.54,0,0,1,1.08,0v.84h.84a.54.54,0,1,1,0,1.08Z" fill="#fff"/></g></g></svg>