<svg xmlns="http://www.w3.org/2000/svg" viewBox="0 0 33.77 38.74"><title>logo</title><g id="Layer_2" data-name="Layer 2"><g id="bar"><path d="M30,.05H24.67A3.81,3.81,0,0,0,21,3a3.7,3.7,0,0,0-.09.83V13a2.47,2.47,0,0,1-1,2,2.33,2.33,0,0,1-1.5.5,2.06,2.06,0,0,1-.35,0,6.52,6.52,0,0,0-.88-.07h-.26a4,4,0,0,0-4,3.9,4,4,0,0,0,4.05,4h.18a6.52,6.52,0,0,0,.88-.07,2.07,2.07,0,0,1,.35,0,2.63,2.63,0,0,1,.7.1,2.57,2.57,0,0,1,.84.43,2.48,2.48,0,0,1,.95,1.95v9.45s0,0,0,.06a.49.49,0,0,0,0,.12v.07s0,.08,0,.11,0,0,0,.08,0,.07,0,.1a.24.24,0,0,0,0,.08v0A16.89,16.89,0,0,0,33.77,19.42V3.86A3.8,3.8,0,0,0,30,.05Z" fill="#00bea4"/><path d="M21,35.81s0,0,0,.08A.19.19,0,0,0,21,36l0,.1a.24.24,0,0,0,0,.08l0,.09,0,.08a.36.36,0,0,0,0,.09.14.14,0,0,0,0,.07.61.61,0,0,1,.05.12.2.2,0,0,1,0,.08l.06.11,0,.07a.56.56,0,0,0,0,.08.35.35,0,0,0,.05.08l0,.07a.35.35,0,0,1,.05.08l.05.06.06.08.05.06.06.07,0,.06.06.08.05,0,.07.08.05,0,.08.08h0c.12.1.23.19.36.28l0,0,.11.07,0,0,.1.07,0,0,.11.06.05,0,.11,0,0,0,.12,0,0,0,.13,0h0a4.34,4.34,0,0,0,.48.14l.16,0h6.53a3.55,3.55,0,0,0,.64-.17h0l.12,0,0,0,.12,0,0,0,.11,0,0,0,.11-.06,0,0,.11-.07,0,0,.11-.07,0,0,.36-.28h0l.08-.08,0,0,.08-.08,0,0,.06-.08,0-.06.06-.07,0-.06.06-.08,0-.06.06-.08,0-.07,0-.08,0-.07,0-.08a1.17,1.17,0,0,0,0-.11l.05-.09,0-.11a.64.64,0,0,0,0-.07.36.36,0,0,0,0-.09l0-.08,0-.09a.24.24,0,0,0,0-.08l0-.1s0-.05,0-.07a.36.36,0,0,0,0-.1s0,0,0-.08,0-.07,0-.1,0,0,0-.08,0-.07,0-.11a.17.17,0,0,0,0-.07.49.49,0,0,0,0-.12.13.13,0,0,1,0-.06V19.42A16.89,16.89,0,0,1,21,35.81Z" fill="#0071b4"/><path d="M16.88,15.4h.26a6.52,6.52,0,0,1,.88.07,2.06,2.06,0,0,0,.35,0,2.33,2.33,0,0,0,1.5-.5,2.47,2.47,0,0,0,1-2V9.15a3.81,3.81,0,0,1-2.45,3.56,3.77,3.77,0,0,1-.75.2h-.94a3.8,3.8,0,0,1-3.8-3.62,1.15,1.15,0,0,1,0-.19V3.81A4.15,4.15,0,0,0,12.83,3,16.9,16.9,0,0,0,0,19.42V34.93a3.81,3.81,0,0,0,3.81,3.81H9.1a3.81,3.81,0,0,0,3.71-2.93,3.71,3.71,0,0,0,.1-.88V29.55s0-.06,0-.09a3.81,3.81,0,0,1,3.19-3.59h.94a3.62,3.62,0,0,1,1.36.26,3.8,3.8,0,0,1,2.45,3.55V25.82h0v-.1a2.48,2.48,0,0,0-.95-1.95,2.57,2.57,0,0,0-.84-.43,2.63,2.63,0,0,0-.7-.1,2.07,2.07,0,0,0-.35,0,6.52,6.52,0,0,1-.88.07H17a4,4,0,0,1-4.05-4,4,4,0,0,1,4-3.9Z" fill="#0071b4"/><path d="M12.83,3A3.81,3.81,0,0,0,9.1,0H3.81A3.8,3.8,0,0,0,0,3.81V19.42A16.9,16.9,0,0,1,12.83,3Z" fill="#00bea4"/></g></g></svg>