<svg xmlns="http://www.w3.org/2000/svg" viewBox="0 0 16.37 20.62"><title>not_ico</title><g id="Layer_2" data-name="Layer 2"><g id="bar"><g opacity="0.5"><path d="M1.62,16.73H14.75c.89,0,1.62-.06,1.62-1h0v-.15a1.62,1.62,0,0,0-.92-1.46l-.52-4.44A6.76,6.76,0,0,0,9.57,3.11V1.39a1.39,1.39,0,1,0-2.77,0V3.11A6.76,6.76,0,0,0,1.44,9.72L.92,14.16A1.62,1.62,0,0,0,0,15.62v.15C0,16.67.73,16.73,1.62,16.73Z" fill="#fff"/><path d="M8.18,20.62a2.42,2.42,0,0,0,2.43-2.42H5.76A2.42,2.42,0,0,0,8.18,20.62Z" fill="#fff" opacity="0.5"/></g></g></g></svg>