<svg xmlns="http://www.w3.org/2000/svg" viewBox="0 0 52.85 52.85"><title>not_icon</title><g id="Layer_2" data-name="Layer 2"><g id="bar"><path d="M26.42,0A26.43,26.43,0,1,0,52.85,26.42,26.42,26.42,0,0,0,26.42,0Zm0,41A3.44,3.44,0,0,1,23,37.6h6.87A3.44,3.44,0,0,1,26.42,41ZM38,34.16h0c0,1.27-1,1.35-2.3,1.35H17.12c-1.27,0-2.3-.08-2.3-1.35v-.22a2.3,2.3,0,0,1,1.3-2.07l.73-6.3a9.57,9.57,0,0,1,7.61-9.36V13.76a2,2,0,1,1,3.93,0v2.45A9.56,9.56,0,0,1,36,25.57l.73,6.3A2.29,2.29,0,0,1,38,33.94Z" fill="#f9f9f9"/></g></g></svg>