<svg xmlns="http://www.w3.org/2000/svg" viewBox="0 0 41.21 41.21"><defs><style>.cls-1{fill:none;stroke:#ff6d00;stroke-miterlimit:10;stroke-width:3.91px;}.cls-2,.cls-3{fill:#ff6d00;}.cls-3{opacity:0.5;}</style></defs><title>cita</title><g id="Layer_2" data-name="Layer 2"><g id="navbar"><circle class="cls-1" cx="20.61" cy="20.61" r="18.65"/><path class="cls-2" d="M14.15,26.91H27.06c.88,0,1.6-.05,1.6-.93h0v-.16a1.6,1.6,0,0,0-.91-1.43L27.24,20A6.62,6.62,0,0,0,22,13.53v-1.7a1.37,1.37,0,1,0-2.73,0v1.69A6.64,6.64,0,0,0,14,20l-.51,4.37a1.59,1.59,0,0,0-.9,1.43V26C12.56,26.86,13.27,26.91,14.15,26.91Z"/><path class="cls-3" d="M20.61,30.75A2.39,2.39,0,0,0,23,28.36H18.22A2.39,2.39,0,0,0,20.61,30.75Z"/></g></g></svg>