<svg xmlns="http://www.w3.org/2000/svg" viewBox="0 0 19.45 23.38"><defs><style>.cls-1{fill:none;stroke:#001f46;stroke-linecap:round;stroke-miterlimit:10;stroke-width:1px;}.cls-2{fill:#ff1d25;}</style></defs><title>hc</title><g id="Layer_2" data-name="Layer 2"><g id="nuevo_tratamiento" data-name="nuevo tratamiento"><path class="cls-1" d="M18.82,6.05,13.41.63A.49.49,0,0,0,13.08.5H2.72A2.21,2.21,0,0,0,.5,2.72V20.66a2.21,2.21,0,0,0,2.22,2.22h14A2.21,2.21,0,0,0,19,20.66V6.37A.42.42,0,0,0,18.82,6.05Zm-5.28-4,3.85,3.85H14.85a1.3,1.3,0,0,1-.93-.38,1.34,1.34,0,0,1-.38-.93V2.06ZM16.73,22h-14a1.31,1.31,0,0,1-1.31-1.31V2.72A1.31,1.31,0,0,1,2.72,1.41h9.91V4.6a2.18,2.18,0,0,0,.65,1.57,2.2,2.2,0,0,0,1.57.66H18V20.66A1.31,1.31,0,0,1,16.73,22Z"/><rect class="cls-2" x="8.84" y="8.72" width="1.78" height="7.63" rx="0.39" ry="0.39"/><rect class="cls-2" x="8.84" y="8.72" width="1.78" height="7.63" rx="0.39" ry="0.39" transform="translate(22.26 2.81) rotate(90)"/></g></g></svg>