<svg xmlns="http://www.w3.org/2000/svg" viewBox="0 0 73.83 73.83"><defs><style>.cls-1{fill:#fff;}.cls-2{opacity:0.8;}.cls-3{fill:#001f46;}.cls-4{fill:none;stroke:#ff6d00;stroke-miterlimit:10;stroke-width:5px;}</style></defs><title>man2_1</title><g id="Layer_2" data-name="Layer 2"><g id="nuevo_tratamiento" data-name="nuevo tratamiento"><circle class="cls-1" cx="36.91" cy="36.91" r="34.41"/><g class="cls-2"><path class="cls-3" d="M36.79,47.71c3.1,0,6.08-1.56,8.41-4.49a44,44,0,0,0-16.55,0C30.89,46.07,33.75,47.68,36.79,47.71Z"/><path class="cls-3" d="M48.9,44.1c-.23.35-.46.7-.71,1-3,3.94-7,6.11-11.29,6.11h-.16c-4.33-.06-8.34-2.33-11.29-6.4-.18-.24-.33-.5-.5-.75-8.43,2.45-14.74,7.39-16.61,13.38a34.89,34.89,0,0,0,57.15,0C63.64,51.51,57.34,46.55,48.9,44.1Z"/><path class="cls-3" d="M37.19,15.68H37a11.41,11.41,0,0,0-8.53,3.71c-2.44,2.66-3.76,6.47-3.82,11A20.73,20.73,0,0,0,28.3,42.77c2.28,3.15,5.29,4.9,8.49,4.94S43,46.08,45.39,43A20.72,20.72,0,0,0,49.32,30.7c.06-4.54-1.16-8.38-3.54-11.11A11.4,11.4,0,0,0,37.19,15.68Z"/></g><circle class="cls-4" cx="36.91" cy="36.91" r="34.41"/></g></g></svg>