<svg xmlns="http://www.w3.org/2000/svg" viewBox="0 0 12.1 14.55"><title>Asset 17</title><g id="Layer_2" data-name="Layer 2"><g id="inicio"><line x1="2.95" y1="3.43" x2="6.05" y2="3.43" style="fill:none;stroke:#ff6d00;stroke-linecap:round;stroke-miterlimit:10;stroke-width:1.3532022966515538px"/><line x1="2.95" y1="8.56" x2="5.17" y2="8.56" style="fill:none;stroke:#001f46;stroke-linecap:round;stroke-miterlimit:10;stroke-width:1.3532022966515538px"/><line x1="2.95" y1="11.12" x2="7.48" y2="11.12" style="fill:none;stroke:#001f46;stroke-linecap:round;stroke-miterlimit:10;stroke-width:1.3532022966515538px"/><path d="M11.71,3.76,8.34.39a.28.28,0,0,0-.2-.08H1.69A1.38,1.38,0,0,0,.31,1.69V12.86a1.38,1.38,0,0,0,1.38,1.38h8.72a1.38,1.38,0,0,0,1.38-1.38V4A.3.3,0,0,0,11.71,3.76ZM8.43,1.28l2.39,2.4H9.24a.84.84,0,0,1-.58-.24.81.81,0,0,1-.23-.57V1.28Zm2,12.39H1.69a.81.81,0,0,1-.81-.81V1.69A.81.81,0,0,1,1.69.88H7.86v2a1.37,1.37,0,0,0,.4,1,1.39,1.39,0,0,0,1,.41h2v8.61A.81.81,0,0,1,10.41,13.67Z" style="fill:none;stroke:#001f46;stroke-linecap:round;stroke-miterlimit:10;stroke-width:0.6204294721482713px"/></g></g></svg>